<?xml version="1.0" standalone="no"?>
<!DOCTYPE svg PUBLIC "-//W3C//DTD SVG 20010904//EN"
 "http://www.w3.org/TR/2001/REC-SVG-20010904/DTD/svg10.dtd">
<svg version="1.0" xmlns="http://www.w3.org/2000/svg"
 width="333.000000pt" height="333.000000pt" viewBox="0 0 333.000000 333.000000"
 preserveAspectRatio="xMidYMid meet">

<g transform="translate(0.000000,333.000000) scale(0.100000,-0.100000)"
fill="#000000" stroke="none">
<path d="M2473 2257 l-103 -40 0 -276 c-1 -334 -9 -428 -48 -547 -103 -311
-316 -551 -603 -678 l-55 -24 -83 39 c-116 54 -192 108 -289 203 -149 145
-227 270 -290 463 -9 28 -8 34 6 42 14 7 141 59 372 151 58 24 340 138 453
184 48 20 95 36 103 36 10 0 14 -13 14 -52 0 -119 -39 -273 -92 -367 -35 -61
-173 -211 -195 -211 -18 0 -143 125 -168 168 -11 17 -25 32 -32 32 -7 0 -43
-13 -80 -29 -38 -16 -76 -32 -86 -35 -18 -6 -17 -9 9 -54 60 -104 198 -238
304 -296 49 -27 50 -27 87 -9 155 73 333 275 394 448 48 137 50 151 56 438 3
173 2 277 -4 277 -5 0 -54 -18 -109 -41 -54 -23 -119 -49 -144 -59 -183 -72
-313 -124 -360 -145 -30 -14 -138 -58 -240 -99 -540 -216 -530 -212 -530 -241
0 -29 48 -222 65 -260 7 -16 16 -41 20 -55 20 -65 100 -202 182 -310 106 -142
326 -315 473 -374 25 -10 59 -23 75 -30 87 -36 94 -36 200 8 343 142 601 412
726 758 68 188 81 314 77 714 l-3 311 -102 -40z"/>
</g>
</svg>
